<svg width="308" height="80" viewBox="0 0 308 80" fill="none" xmlns="http://www.w3.org/2000/svg">
<g clip-path="url(#clip0_104_873)">
<path d="M100.139 52.915V14.1078H126.289V20.8725H108.344V30.1196H124.944V36.8843H108.344V46.1503H126.365V52.915H100.139ZM151.894 63.8296V48.2536H151.647C151.268 49.0621 150.731 49.8643 150.037 50.6601C149.354 51.4433 148.464 52.0939 147.365 52.6119C146.278 53.1298 144.952 53.3888 143.386 53.3888C141.175 53.3888 139.173 52.8203 137.379 51.6834C135.598 50.5338 134.183 48.8473 133.134 46.624C132.098 44.3881 131.58 41.6468 131.58 38.4002C131.58 35.0652 132.117 32.2924 133.191 30.0817C134.265 27.8583 135.692 26.1971 137.473 25.0981C139.267 23.9864 141.232 23.4306 143.367 23.4306C144.996 23.4306 146.354 23.7085 147.441 24.2644C148.54 24.8076 149.424 25.4897 150.093 26.3108C150.776 27.1193 151.294 27.9152 151.647 28.6984H151.988V23.8096H159.947V63.8296H151.894ZM145.944 46.9651C147.245 46.9651 148.344 46.6114 149.241 45.904C150.15 45.1839 150.845 44.1796 151.325 42.8911C151.818 41.6026 152.064 40.093 152.064 38.3623C152.064 36.6316 151.824 35.1284 151.344 33.8525C150.864 32.5766 150.169 31.5913 149.26 30.8965C148.35 30.2017 147.245 29.8543 145.944 29.8543C144.617 29.8543 143.499 30.2143 142.59 30.9344C141.68 31.6544 140.992 32.6524 140.524 33.9283C140.057 35.2042 139.823 36.6822 139.823 38.3623C139.823 40.0551 140.057 41.552 140.524 42.8532C141.004 44.1417 141.693 45.1523 142.59 45.885C143.499 46.6051 144.617 46.9651 145.944 46.9651ZM185.092 40.5225V23.8096H193.164V52.915H185.414V47.6283H185.111C184.454 49.3337 183.361 50.7043 181.833 51.7402C180.317 52.7761 178.466 53.294 176.281 53.294C174.335 53.294 172.624 52.8519 171.146 51.9676C169.668 51.0833 168.512 49.8264 167.678 48.1968C166.857 46.5672 166.44 44.6154 166.427 42.3416V23.8096H174.5V40.9015C174.512 42.6195 174.973 43.9775 175.883 44.9755C176.792 45.9734 178.011 46.4724 179.54 46.4724C180.513 46.4724 181.422 46.2514 182.269 45.8092C183.115 45.3544 183.797 44.6849 184.315 43.8006C184.846 42.9164 185.105 41.8236 185.092 40.5225ZM199.621 52.915V23.8096H207.693V52.915H199.621ZM203.676 20.0577C202.476 20.0577 201.446 19.6598 200.587 18.8639C199.741 18.0554 199.318 17.0891 199.318 15.9648C199.318 14.8531 199.741 13.8993 200.587 13.1035C201.446 12.295 202.476 11.8907 203.676 11.8907C204.876 11.8907 205.899 12.295 206.746 13.1035C207.605 13.8993 208.034 14.8531 208.034 15.9648C208.034 17.0891 207.605 18.0554 206.746 18.8639C205.899 19.6598 204.876 20.0577 203.676 20.0577ZM224.885 53.3888C222.674 53.3888 220.672 52.8203 218.878 51.6834C217.097 50.5338 215.682 48.8473 214.633 46.624C213.597 44.3881 213.079 41.6468 213.079 38.4002C213.079 35.0652 213.616 32.2924 214.69 30.0817C215.764 27.8583 217.191 26.1971 218.973 25.0981C220.766 23.9864 222.731 23.4306 224.866 23.4306C226.495 23.4306 227.853 23.7085 228.94 24.2644C230.039 24.8076 230.923 25.4897 231.593 26.3108C232.275 27.1193 232.793 27.9152 233.146 28.6984H233.393V14.1078H241.446V52.915H233.487V48.2536H233.146C232.767 49.0621 232.23 49.8643 231.536 50.6601C230.853 51.4433 229.963 52.0939 228.864 52.6119C227.777 53.1298 226.451 53.3888 224.885 53.3888ZM227.443 46.9651C228.744 46.9651 229.843 46.6114 230.74 45.904C231.649 45.1839 232.344 44.1796 232.824 42.8911C233.317 41.6026 233.563 40.093 233.563 38.3623C233.563 36.6316 233.323 35.1284 232.843 33.8525C232.363 32.5766 231.668 31.5913 230.759 30.8965C229.849 30.2017 228.744 29.8543 227.443 29.8543C226.116 29.8543 224.998 30.2143 224.089 30.9344C223.179 31.6544 222.491 32.6524 222.023 33.9283C221.556 35.2042 221.322 36.6822 221.322 38.3623C221.322 40.0551 221.556 41.552 222.023 42.8532C222.503 44.1417 223.192 45.1523 224.089 45.885C224.998 46.6051 226.116 46.9651 227.443 46.9651ZM266.747 40.5225V23.8096H274.82V52.915H267.07V47.6283H266.766C266.109 49.3337 265.017 50.7043 263.488 51.7402C261.972 52.7761 260.122 53.294 257.936 53.294C255.991 53.294 254.279 52.8519 252.801 51.9676C251.323 51.0833 250.167 49.8264 249.333 48.1968C248.512 46.5672 248.095 44.6154 248.083 42.3416V23.8096H256.155V40.9015C256.168 42.6195 256.629 43.9775 257.538 44.9755C258.448 45.9734 259.667 46.4724 261.195 46.4724C262.168 46.4724 263.078 46.2514 263.924 45.8092C264.77 45.3544 265.453 44.6849 265.97 43.8006C266.501 42.9164 266.76 41.8236 266.747 40.5225ZM288.022 23.8096L293.366 33.9851L298.842 23.8096H307.123L298.69 38.3623L307.35 52.915H299.107L293.366 42.8532L287.719 52.915H279.382L288.022 38.3623L279.685 23.8096H288.022Z" fill="white"/>
<path d="M270.835 70.3472V62.6706H271.719V65.5044H271.794C271.859 65.4044 271.949 65.277 272.064 65.122C272.182 64.9646 272.349 64.8247 272.566 64.7022C272.786 64.5773 273.084 64.5148 273.459 64.5148C273.943 64.5148 274.371 64.636 274.74 64.8784C275.11 65.1208 275.399 65.4644 275.606 65.9092C275.814 66.354 275.917 66.8787 275.917 67.4835C275.917 68.0932 275.814 68.6217 275.606 69.069C275.399 69.5138 275.112 69.8586 274.744 70.1035C274.377 70.3459 273.953 70.4671 273.474 70.4671C273.104 70.4671 272.808 70.4059 272.585 70.2834C272.363 70.1585 272.192 70.0173 272.072 69.8599C271.952 69.7 271.859 69.5675 271.794 69.4626H271.689V70.3472H270.835ZM271.704 67.4685C271.704 67.9033 271.768 68.2868 271.896 68.6192C272.023 68.949 272.209 69.2077 272.454 69.3951C272.699 69.58 272.999 69.6725 273.354 69.6725C273.723 69.6725 274.032 69.575 274.279 69.3801C274.529 69.1827 274.717 68.9178 274.842 68.5855C274.969 68.2506 275.033 67.8783 275.033 67.4685C275.033 67.0637 274.97 66.6988 274.845 66.374C274.723 66.0466 274.537 65.788 274.287 65.5981C274.04 65.4057 273.728 65.3094 273.354 65.3094C272.994 65.3094 272.691 65.4007 272.447 65.5831C272.202 65.763 272.017 66.0154 271.892 66.3402C271.767 66.6626 271.704 67.0387 271.704 67.4685ZM277.634 72.5062C277.484 72.5062 277.351 72.4937 277.233 72.4687C277.116 72.4462 277.034 72.4237 276.989 72.4012L277.214 71.6216C277.429 71.6766 277.619 71.6966 277.784 71.6816C277.949 71.6666 278.095 71.5929 278.223 71.4604C278.353 71.3305 278.471 71.1193 278.579 70.827L278.744 70.3772L276.615 64.5898H277.574L279.163 69.1777H279.223L280.813 64.5898H281.772L279.328 71.1868C279.218 71.4842 279.082 71.7303 278.92 71.9252C278.757 72.1226 278.569 72.2688 278.354 72.3638C278.141 72.4587 277.902 72.5062 277.634 72.5062ZM286.343 70.3472H285.369L288.188 62.6706H289.147L291.966 70.3472H290.991L288.697 63.8851H288.637L286.343 70.3472ZM286.703 67.3485H290.631V68.1732H286.703V67.3485ZM293.042 72.5062V64.5898H293.896V65.5044H294.001C294.066 65.4044 294.156 65.277 294.271 65.122C294.388 64.9646 294.556 64.8247 294.773 64.7022C294.993 64.5773 295.291 64.5148 295.665 64.5148C296.15 64.5148 296.577 64.636 296.947 64.8784C297.317 65.1208 297.606 65.4644 297.813 65.9092C298.021 66.354 298.124 66.8787 298.124 67.4835C298.124 68.0932 298.021 68.6217 297.813 69.069C297.606 69.5138 297.318 69.8586 296.951 70.1035C296.584 70.3459 296.16 70.4671 295.68 70.4671C295.311 70.4671 295.014 70.4059 294.792 70.2834C294.57 70.1585 294.398 70.0173 294.279 69.8599C294.159 69.7 294.066 69.5675 294.001 69.4626H293.926V72.5062H293.042ZM293.911 67.4685C293.911 67.9033 293.975 68.2868 294.102 68.6192C294.23 68.949 294.416 69.2077 294.661 69.3951C294.906 69.58 295.206 69.6725 295.56 69.6725C295.93 69.6725 296.239 69.575 296.486 69.3801C296.736 69.1827 296.924 68.9178 297.049 68.5855C297.176 68.2506 297.24 67.8783 297.24 67.4685C297.24 67.0637 297.177 66.6988 297.052 66.374C296.93 66.0466 296.744 65.788 296.494 65.5981C296.246 65.4057 295.935 65.3094 295.56 65.3094C295.201 65.3094 294.898 65.4007 294.653 65.5831C294.408 65.763 294.224 66.0154 294.099 66.3402C293.974 66.6626 293.911 67.0387 293.911 67.4685ZM301.888 70.4671C301.333 70.4671 300.854 70.3447 300.452 70.0998C300.052 69.8524 299.744 69.5075 299.526 69.0652C299.311 68.6204 299.204 68.1032 299.204 67.5134C299.204 66.9237 299.311 66.404 299.526 65.9542C299.744 65.5019 300.046 65.1495 300.433 64.8971C300.823 64.6422 301.278 64.5148 301.798 64.5148C302.097 64.5148 302.394 64.5648 302.686 64.6647C302.978 64.7647 303.244 64.9271 303.484 65.152C303.724 65.3744 303.915 65.6693 304.058 66.0366C304.2 66.404 304.271 66.8562 304.271 67.3935V67.7683H299.833V67.0037H303.372C303.372 66.6788 303.307 66.389 303.177 66.1341C303.05 65.8792 302.867 65.678 302.63 65.5306C302.395 65.3832 302.117 65.3094 301.798 65.3094C301.445 65.3094 301.14 65.3969 300.883 65.5718C300.628 65.7442 300.432 65.9691 300.295 66.2465C300.157 66.5239 300.088 66.8213 300.088 67.1386V67.6484C300.088 68.0832 300.163 68.4518 300.313 68.7541C300.466 69.054 300.677 69.2826 300.947 69.4401C301.217 69.595 301.53 69.6725 301.888 69.6725C302.12 69.6725 302.33 69.64 302.517 69.575C302.707 69.5075 302.871 69.4076 303.008 69.2752C303.146 69.1402 303.252 68.9728 303.327 68.7729L304.182 69.0128C304.092 69.3026 303.94 69.5575 303.728 69.7774C303.516 69.9948 303.253 70.1648 302.941 70.2872C302.628 70.4071 302.277 70.4671 301.888 70.4671ZM306.502 62.6706V70.3472H305.617V62.6706H306.502Z" fill="white"/>
<path fill-rule="evenodd" clip-rule="evenodd" d="M43.1456 79.8432C15.8865 80.1458 1.052 78.5195 0.189436 45.2129C-0.757903 8.62688 6.21806 -1.65184 46.5056 0.460823C68.1623 1.59642 76.7395 9.74486 76.6338 40.1658C76.5212 72.6036 67.4601 78.979 43.1456 79.8432ZM42.8546 42.4882H44.1036V55.4986L49.7527 53.1792V37.403C49.7527 35.7581 51.0861 34.4247 52.7311 34.4247H53.43V30.8344C53.43 29.9206 54.1707 29.1799 55.0845 29.1799H56.5938V27.3214H20.15V29.1799H21.6593C22.5731 29.1799 23.3138 29.9206 23.3138 30.8344V34.4247H24.136C24.9259 34.4247 25.6836 34.7384 26.2421 35.297C26.8006 35.8555 27.1144 36.6131 27.1144 37.403V62.474L32.7636 60.1546V46.9116H33.9135V44.5197H34.3953V46.9116H35.5472V59.0116L41.1964 56.6922V42.4882H42.3726V40.0348H42.8544L42.8546 42.4882Z" fill="#7AC943"/>
</g>
<defs>
<clipPath id="clip0_104_873">
<rect width="307.523" height="80" fill="white"/>
</clipPath>
</defs>
</svg>
