<svg width="144" height="38" viewBox="0 0 144 38" fill="none" xmlns="http://www.w3.org/2000/svg">
<g clip-path="url(#clip0_104_513)">
<path d="M46.8164 24.4278V6.28492H59.0415V9.44752H50.6522V13.7706H58.4126V16.9332H50.6522V21.2652H59.077V24.4278H46.8164ZM71.012 29.5305V22.2485H70.8969C70.7197 22.6265 70.4687 23.0015 70.1439 23.3736C69.8249 23.7397 69.4086 24.0439 68.8948 24.286C68.3869 24.5282 67.7667 24.6493 67.0344 24.6493C66.0009 24.6493 65.0648 24.3835 64.2262 23.852C63.3934 23.3145 62.732 22.5261 62.2418 21.4867C61.7575 20.4413 61.5154 19.1597 61.5154 17.6419C61.5154 16.0828 61.7664 14.7864 62.2684 13.7529C62.7704 12.7135 63.4377 11.9368 64.2705 11.423C65.1091 10.9033 66.0275 10.6435 67.0256 10.6435C67.7874 10.6435 68.4223 10.7734 68.9302 11.0332C69.444 11.2872 69.8574 11.6061 70.1704 11.99C70.4894 12.368 70.7315 12.74 70.8969 13.1062H71.0563V10.8206H74.777V29.5305H71.012ZM68.2304 21.6461C68.8387 21.6461 69.3525 21.4807 69.7718 21.15C70.197 20.8134 70.5218 20.3439 70.7463 19.7415C70.9766 19.1391 71.0918 18.4333 71.0918 17.6242C71.0918 16.8151 70.9795 16.1123 70.7551 15.5158C70.5307 14.9193 70.2059 14.4587 69.7806 14.1338C69.3554 13.809 68.8387 13.6466 68.2304 13.6466C67.6102 13.6466 67.0876 13.8149 66.6623 14.1515C66.2371 14.4882 65.9153 14.9548 65.6967 15.5512C65.4782 16.1477 65.369 16.8387 65.369 17.6242C65.369 18.4156 65.4782 19.1154 65.6967 19.7237C65.9212 20.3261 66.243 20.7986 66.6623 21.1412C67.0876 21.4778 67.6102 21.6461 68.2304 21.6461ZM86.5327 18.6341V10.8206H90.3065V24.4278H86.6833V21.9562H86.5415C86.2344 22.7535 85.7236 23.3943 85.009 23.8785C84.3003 24.3628 83.435 24.605 82.4133 24.605C81.5038 24.605 80.7036 24.3983 80.0126 23.9848C79.3216 23.5714 78.7812 22.9838 78.3914 22.2219C78.0075 21.4601 77.8126 20.5476 77.8067 19.4846V10.8206H81.5806V18.8113C81.5865 19.6145 81.8021 20.2494 82.2273 20.7159C82.6525 21.1825 83.2224 21.4158 83.937 21.4158C84.3918 21.4158 84.817 21.3124 85.2127 21.1057C85.6084 20.8931 85.9273 20.5801 86.1695 20.1667C86.4175 19.7533 86.5386 19.2424 86.5327 18.6341ZM93.3252 24.4278V10.8206H97.099V24.4278H93.3252ZM95.221 9.06659C94.6599 9.06659 94.1786 8.88055 93.777 8.50848C93.3813 8.13051 93.1834 7.67871 93.1834 7.15308C93.1834 6.63336 93.3813 6.18747 93.777 5.8154C94.1786 5.43742 94.6599 5.24844 95.221 5.24844C95.782 5.24844 96.2604 5.43742 96.6561 5.8154C97.0577 6.18747 97.2585 6.63336 97.2585 7.15308C97.2585 7.67871 97.0577 8.13051 96.6561 8.50848C96.2604 8.88055 95.782 9.06659 95.221 9.06659ZM105.136 24.6493C104.103 24.6493 103.167 24.3835 102.328 23.852C101.495 23.3145 100.834 22.5261 100.344 21.4867C99.8593 20.4413 99.6172 19.1597 99.6172 17.6419C99.6172 16.0828 99.8682 14.7864 100.37 13.7529C100.872 12.7135 101.54 11.9368 102.372 11.423C103.211 10.9033 104.129 10.6435 105.127 10.6435C105.889 10.6435 106.524 10.7734 107.032 11.0332C107.546 11.2872 107.959 11.6061 108.272 11.99C108.591 12.368 108.833 12.74 108.999 13.1062H109.114V6.28492H112.879V24.4278H109.158V22.2485H108.999C108.821 22.6265 108.57 23.0015 108.246 23.3736C107.927 23.7397 107.51 24.0439 106.997 24.286C106.489 24.5282 105.869 24.6493 105.136 24.6493ZM106.332 21.6461C106.94 21.6461 107.454 21.4807 107.874 21.15C108.299 20.8134 108.624 20.3439 108.848 19.7415C109.078 19.1391 109.194 18.4333 109.194 17.6242C109.194 16.8151 109.081 16.1123 108.857 15.5158C108.632 14.9193 108.308 14.4587 107.882 14.1338C107.457 13.809 106.94 13.6466 106.332 13.6466C105.712 13.6466 105.189 13.8149 104.764 14.1515C104.339 14.4882 104.017 14.9548 103.799 15.5512C103.58 16.1477 103.471 16.8387 103.471 17.6242C103.471 18.4156 103.58 19.1154 103.799 19.7237C104.023 20.3261 104.345 20.7986 104.764 21.1412C105.189 21.4778 105.712 21.6461 106.332 21.6461ZM124.708 18.6341V10.8206H128.481V24.4278H124.858V21.9562H124.716C124.409 22.7535 123.898 23.3943 123.184 23.8785C122.475 24.3628 121.61 24.605 120.588 24.605C119.679 24.605 118.878 24.3983 118.187 23.9848C117.496 23.5714 116.956 22.9838 116.566 22.2219C116.182 21.4601 115.988 20.5476 115.982 19.4846V10.8206H119.755V18.8113C119.761 19.6145 119.977 20.2494 120.402 20.7159C120.827 21.1825 121.397 21.4158 122.112 21.4158C122.567 21.4158 122.992 21.3124 123.388 21.1057C123.783 20.8931 124.102 20.5801 124.344 20.1667C124.592 19.7533 124.713 19.2424 124.708 18.6341ZM134.654 10.8206L137.152 15.5778L139.712 10.8206H143.583L139.641 17.6242L143.69 24.4278H139.836L137.152 19.7237L134.512 24.4278H130.614L134.654 17.6242L130.756 10.8206H134.654Z" fill="black"/>
<path d="M126.618 33.2129V29.6241H127.032V30.9489H127.067C127.097 30.9021 127.139 30.8426 127.193 30.7701C127.248 30.6965 127.326 30.6311 127.428 30.5739C127.531 30.5154 127.67 30.4862 127.845 30.4862C128.072 30.4862 128.272 30.5429 128.444 30.6562C128.617 30.7695 128.752 30.9302 128.849 31.1381C128.946 31.3461 128.995 31.5914 128.995 31.8741C128.995 32.1592 128.946 32.4063 128.849 32.6154C128.752 32.8233 128.618 32.9845 128.446 33.099C128.274 33.2124 128.076 33.269 127.852 33.269C127.679 33.269 127.541 33.2404 127.437 33.1831C127.333 33.1247 127.253 33.0587 127.197 32.9851C127.141 32.9104 127.097 32.8484 127.067 32.7994H127.018V33.2129H126.618ZM127.025 31.8671C127.025 32.0704 127.055 32.2497 127.114 32.4051C127.174 32.5593 127.261 32.6802 127.375 32.7678C127.49 32.8543 127.63 32.8975 127.796 32.8975C127.969 32.8975 128.113 32.8519 128.229 32.7608C128.346 32.6685 128.433 32.5447 128.492 32.3893C128.551 32.2328 128.581 32.0587 128.581 31.8671C128.581 31.6779 128.552 31.5073 128.493 31.3554C128.436 31.2024 128.349 31.0815 128.232 30.9927C128.117 30.9027 127.971 30.8577 127.796 30.8577C127.628 30.8577 127.486 30.9004 127.372 30.9857C127.257 31.0698 127.171 31.1878 127.113 31.3396C127.054 31.4903 127.025 31.6662 127.025 31.8671ZM129.797 34.2223C129.727 34.2223 129.665 34.2165 129.61 34.2048C129.555 34.1943 129.517 34.1838 129.496 34.1732L129.601 33.8087C129.701 33.8344 129.79 33.8438 129.867 33.8368C129.944 33.8298 130.013 33.7953 130.072 33.7334C130.133 33.6726 130.189 33.5739 130.239 33.4372L130.316 33.227L129.321 30.5213H129.769L130.512 32.6662H130.54L131.283 30.5213H131.732L130.589 33.6055C130.538 33.7445 130.474 33.8596 130.398 33.9507C130.322 34.043 130.234 34.1113 130.134 34.1557C130.034 34.2001 129.922 34.2223 129.797 34.2223ZM133.869 33.2129H133.413L134.731 29.6241H135.18L136.497 33.2129H136.042L134.969 30.1918H134.941L133.869 33.2129ZM134.037 31.811H135.874V32.1966H134.037V31.811ZM137 34.2223V30.5213H137.4V30.9489H137.449C137.479 30.9021 137.521 30.8426 137.575 30.7701C137.63 30.6965 137.708 30.6311 137.81 30.5739C137.913 30.5154 138.052 30.4862 138.227 30.4862C138.454 30.4862 138.653 30.5429 138.826 30.6562C138.999 30.7695 139.134 30.9302 139.231 31.1381C139.328 31.3461 139.377 31.5914 139.377 31.8741C139.377 32.1592 139.328 32.4063 139.231 32.6154C139.134 32.8233 139 32.9845 138.828 33.099C138.656 33.2124 138.458 33.269 138.234 33.269C138.061 33.269 137.923 33.2404 137.819 33.1831C137.715 33.1247 137.635 33.0587 137.579 32.9851C137.523 32.9104 137.479 32.8484 137.449 32.7994H137.414V34.2223H137ZM137.407 31.8671C137.407 32.0704 137.437 32.2497 137.496 32.4051C137.556 32.5593 137.643 32.6802 137.757 32.7678C137.872 32.8543 138.012 32.8975 138.178 32.8975C138.351 32.8975 138.495 32.8519 138.611 32.7608C138.728 32.6685 138.815 32.5447 138.874 32.3893C138.933 32.2328 138.963 32.0587 138.963 31.8671C138.963 31.6779 138.934 31.5073 138.875 31.3554C138.818 31.2024 138.731 31.0815 138.614 30.9927C138.499 30.9027 138.353 30.8577 138.178 30.8577C138.01 30.8577 137.868 30.9004 137.754 30.9857C137.639 31.0698 137.553 31.1878 137.495 31.3396C137.436 31.4903 137.407 31.6662 137.407 31.8671ZM141.136 33.269C140.877 33.269 140.653 33.2118 140.465 33.0973C140.278 32.9816 140.134 32.8204 140.032 32.6136C139.932 32.4057 139.881 32.1638 139.881 31.8881C139.881 31.6124 139.932 31.3694 140.032 31.1591C140.134 30.9477 140.275 30.783 140.456 30.665C140.638 30.5458 140.851 30.4862 141.094 30.4862C141.234 30.4862 141.373 30.5096 141.509 30.5563C141.646 30.6031 141.77 30.679 141.883 30.7841C141.995 30.8881 142.084 31.026 142.151 31.1977C142.217 31.3694 142.251 31.5809 142.251 31.8321V32.0073H140.176V31.6498H141.83C141.83 31.4979 141.8 31.3624 141.739 31.2433C141.679 31.1241 141.594 31.0301 141.483 30.9611C141.373 30.8922 141.243 30.8577 141.094 30.8577C140.929 30.8577 140.787 30.8986 140.666 30.9804C140.547 31.061 140.455 31.1662 140.391 31.2958C140.327 31.4255 140.295 31.5645 140.295 31.7129V31.9512C140.295 32.1545 140.33 32.3268 140.4 32.4682C140.471 32.6084 140.57 32.7153 140.696 32.7889C140.822 32.8613 140.969 32.8975 141.136 32.8975C141.245 32.8975 141.343 32.8823 141.43 32.8519C141.519 32.8204 141.596 32.7737 141.66 32.7118C141.724 32.6487 141.774 32.5704 141.809 32.4769L142.208 32.5891C142.166 32.7246 142.096 32.8438 141.996 32.9466C141.897 33.0482 141.774 33.1277 141.628 33.1849C141.482 33.241 141.318 33.269 141.136 33.269ZM143.293 29.6241V33.2129H142.88V29.6241H143.293Z" fill="black"/>
<path fill-rule="evenodd" clip-rule="evenodd" d="M20.171 37.3276C7.42708 37.469 0.491773 36.7087 0.088512 21.1375C-0.354381 4.03308 2.90697 -0.772342 21.7419 0.215352C31.8666 0.746257 35.8766 4.55575 35.8272 18.7779C35.7745 33.943 31.5383 36.9235 20.171 37.3276ZM20.035 19.8636H20.6189V25.9462L23.2599 24.8618V17.4863C23.2599 16.7172 23.8833 16.0939 24.6524 16.0939H24.9791V14.4154C24.9791 13.9882 25.3254 13.6419 25.7526 13.6419H26.4582V12.773H9.42031V13.6419H10.1259C10.5531 13.6419 10.8994 13.9882 10.8994 14.4154V16.0939H11.2838C11.6531 16.0939 12.0073 16.2405 12.2684 16.5017C12.5296 16.7628 12.6762 17.117 12.6762 17.4863V29.2073L15.3173 28.1229V21.9317H15.8549V20.8134H16.0802V21.9317H16.6187V27.5886L19.2598 26.5042V19.8636H19.8096V18.7166H20.0349L20.035 19.8636Z" fill="#7AC943"/>
</g>
<defs>
<clipPath id="clip0_104_513">
<rect width="143.771" height="37.401" fill="white"/>
</clipPath>
</defs>
</svg>
