<svg width="74" height="25" viewBox="0 0 74 25" fill="none" xmlns="http://www.w3.org/2000/svg">
<path fill-rule="evenodd" clip-rule="evenodd" d="M4.28601 21.7067C4.04587 21.5388 3.62574 21.0863 3.22639 20.6017C2.82704 20.1173 2.44847 19.6008 2.1199 19.1009C1.79134 18.6013 1.51254 18.1189 1.26926 17.6395C1.0255 17.1605 0.817245 16.6845 0.646682 16.2229C0.476118 15.7614 0.343002 15.314 0.249506 14.9214C0.15601 14.5291 0.101894 14.1918 0.0552666 13.5511C0.00888113 12.9104 -0.0297734 11.967 0.0320739 11.169C0.093438 10.371 0.255304 9.7185 0.439155 9.12588C0.622764 8.53301 0.828841 7.99982 1.06753 7.49127C1.30598 6.98272 1.57705 6.49906 1.87203 6.03738C2.16701 5.57594 2.48519 5.13672 2.82752 4.69896C3.16962 4.26144 3.53563 3.82609 4.00069 3.37504C4.46527 2.92447 5.0289 2.4582 5.59108 2.0632C6.15327 1.66844 6.71473 1.34447 7.32958 1.08186C7.94467 0.819491 8.61315 0.618004 9.34928 0.440918C10.0849 0.263832 10.8875 0.110905 11.5879 0.043984C12.2885 -0.0229368 12.8874 -0.00385107 13.429 0.037461C13.9702 0.0790147 14.4543 0.142795 14.9571 0.227352C15.4594 0.312392 15.9807 0.417725 16.5736 0.615588C17.166 0.813451 17.8306 1.10409 18.4355 1.42854C19.0405 1.75324 19.5857 2.11249 20.0201 2.43477C20.4545 2.75753 20.778 3.04358 21.1657 3.44003C21.5532 3.83672 22.0058 4.34406 22.4044 4.85817C22.803 5.37252 23.148 5.89435 23.4565 6.44856C23.7648 7.00277 24.0368 7.58984 24.2518 8.1542C24.4664 8.71855 24.6241 9.25972 24.7282 9.96613C24.8321 10.673 24.8824 11.5452 24.8918 12.3383C24.9007 13.1315 24.8688 13.8463 24.7584 14.5462C24.6475 15.2463 24.4581 15.9317 24.2129 16.6012C23.9672 17.2709 23.666 17.9241 23.3521 18.5037C23.0381 19.0833 22.7119 19.5892 22.5278 19.8699C22.3437 20.1511 22.3017 20.2072 22.2295 20.1705C22.1567 20.1337 22.0533 20.004 21.5815 19.1715C21.1094 18.3392 20.2687 16.8041 19.5799 15.5457C18.8909 14.2872 18.3534 13.3064 17.7615 12.1876C17.1693 11.069 16.5221 9.81296 15.8326 8.5161C15.1429 7.21924 14.4104 5.88179 14.0026 5.17441C13.5945 4.46679 13.5116 4.38948 13.4534 4.38393C13.395 4.37885 13.3611 4.44529 13.3297 4.50762C13.2981 4.57043 13.2684 4.6289 12.6847 5.78443C12.101 6.9402 10.9631 9.19304 10.3763 10.3546C9.78946 11.5162 9.7537 11.587 9.74283 11.6788C9.7322 11.7706 9.74621 11.8834 9.91581 12.2709C10.0854 12.6589 10.4101 13.3213 10.9515 14.4104C11.4929 15.4995 12.2508 17.016 13.1171 18.6861C13.9835 20.3562 14.9578 22.1812 15.4743 23.1498C15.9906 24.1188 16.0491 24.2321 16.0513 24.2971C16.0534 24.3625 15.9996 24.3799 15.9312 24.401C15.8626 24.422 15.7797 24.4471 15.5045 24.5073C15.2294 24.5679 14.7621 24.664 14.3198 24.7549C13.8772 24.846 13.4597 24.9317 13.035 24.9718C12.6103 25.0124 12.1781 25.0078 11.635 24.9665C11.0914 24.9252 10.4362 24.8479 10.0885 24.5411C9.74041 24.2347 9.69983 23.6991 9.68654 23.3802C9.67301 23.0616 9.68654 22.9596 9.72374 22.7601C9.76095 22.5608 9.82086 22.2636 9.9448 21.9575C10.0685 21.6516 10.2557 21.3366 10.3838 20.9223C10.5116 20.5084 10.5797 19.9946 10.5993 19.5619C10.6186 19.1297 10.5898 18.7784 10.5307 18.3926C10.4715 18.0068 10.3823 17.5862 10.2695 17.1938C10.1564 16.8017 10.0202 16.4376 9.84236 16.0557C9.66407 15.6737 9.44446 15.2744 9.25312 14.9463C9.06154 14.6184 8.89823 14.3619 8.797 14.2032C8.69577 14.0444 8.65615 13.9826 8.62015 13.9845C8.58367 13.9867 8.55058 14.0514 8.49888 14.1522C8.44718 14.2532 8.3776 14.3897 8.19302 14.6984C8.0082 15.0077 7.70911 15.4887 7.43829 16.0175C7.16723 16.5461 6.92491 17.1223 6.47917 18.0391C6.03296 18.956 5.38332 20.2144 5.04436 20.8713C4.70541 21.5282 4.67666 21.584 4.63221 21.6705C4.58752 21.7567 4.52712 21.8737 4.28698 21.7058" fill="#414141"/>
<path d="M32.6645 19.5H29.3691L34.3904 4.95455H38.3534L43.3677 19.5H40.0722L36.4287 8.27841H36.3151L32.6645 19.5ZM32.4586 13.7827H40.2427V16.1832H32.4586V13.7827ZM44.8615 23.5909V8.59091H47.8445V10.4233H47.9794C48.112 10.1297 48.3038 9.83144 48.5547 9.52841C48.8104 9.22064 49.1418 8.96496 49.549 8.76136C49.961 8.55303 50.4723 8.44886 51.0831 8.44886C51.8786 8.44886 52.6125 8.6572 53.2848 9.07386C53.9572 9.4858 54.4946 10.1084 54.8971 10.9418C55.2995 11.7704 55.5007 12.8097 55.5007 14.0597C55.5007 15.2765 55.3043 16.304 54.9113 17.142C54.523 17.9754 53.9927 18.6075 53.3204 19.0384C52.6527 19.4645 51.9046 19.6776 51.076 19.6776C50.4889 19.6776 49.9894 19.5805 49.5775 19.3864C49.1703 19.1922 48.8364 18.9484 48.576 18.6548C48.3156 18.3565 48.1168 18.0559 47.9794 17.7528H47.8871V23.5909H44.8615ZM47.8232 14.0455C47.8232 14.6941 47.9132 15.2599 48.0931 15.7429C48.273 16.2259 48.5334 16.6023 48.8743 16.8722C49.2152 17.1373 49.6295 17.2699 50.1172 17.2699C50.6096 17.2699 51.0263 17.1349 51.3672 16.8651C51.7081 16.5904 51.9662 16.2116 52.1414 15.7287C52.3213 15.241 52.4113 14.6799 52.4113 14.0455C52.4113 13.4157 52.3237 12.8617 52.1485 12.3835C51.9733 11.9053 51.7152 11.5312 51.3743 11.2614C51.0334 10.9915 50.6144 10.8565 50.1172 10.8565C49.6248 10.8565 49.2081 10.9867 48.8672 11.2472C48.5311 11.5076 48.273 11.8769 48.0931 12.3551C47.9132 12.8333 47.8232 13.3968 47.8232 14.0455ZM62.2894 19.7131C61.1672 19.7131 60.2013 19.4858 59.3917 19.0312C58.5867 18.572 57.9665 17.9233 57.5309 17.0852C57.0953 16.2424 56.8775 15.2457 56.8775 14.0952C56.8775 12.973 57.0953 11.9882 57.5309 11.1406C57.9665 10.2931 58.5796 9.63258 59.3704 9.15909C60.1658 8.68561 61.0986 8.44886 62.1686 8.44886C62.8883 8.44886 63.5583 8.56487 64.1786 8.79688C64.8036 9.02415 65.3481 9.36742 65.8121 9.8267C66.2809 10.286 66.6454 10.8636 66.9059 11.5597C67.1663 12.2509 67.2965 13.0606 67.2965 13.9886V14.8196H58.0848V12.9446H64.4485C64.4485 12.509 64.3538 12.1231 64.1644 11.7869C63.975 11.4508 63.7122 11.188 63.376 10.9986C63.0446 10.8045 62.6587 10.7074 62.2184 10.7074C61.7591 10.7074 61.3519 10.8139 60.9968 11.027C60.6464 11.2353 60.3718 11.517 60.1729 11.8722C59.974 12.2225 59.8722 12.6132 59.8675 13.044V14.8267C59.8675 15.3665 59.9669 15.8329 60.1658 16.2259C60.3694 16.6188 60.6559 16.9219 61.0252 17.1349C61.3945 17.348 61.8325 17.4545 62.3391 17.4545C62.6753 17.4545 62.983 17.4072 63.2624 17.3125C63.5418 17.2178 63.7809 17.0758 63.9797 16.8864C64.1786 16.697 64.3301 16.465 64.4343 16.1903L67.2326 16.375C67.0905 17.0473 66.7993 17.6345 66.359 18.1364C65.9234 18.6335 65.3599 19.0218 64.6686 19.3011C63.9821 19.5758 63.189 19.7131 62.2894 19.7131ZM72.0965 4.95455V19.5H69.0709V4.95455H72.0965Z" fill="#414141"/>
</svg>
